<?xml version="1.0" encoding="UTF-8"?>
<svg xmlns="http://www.w3.org/2000/svg" viewBox="0 0 712.02 425.2">
  <defs>
    <style>
      .cls-1 {
        letter-spacing: -.09em;
      }

      .cls-2, .cls-3 {
        fill: #fff;
      }

      .cls-4 {
        letter-spacing: -.07em;
      }

      .cls-5 {
        letter-spacing: -.18em;
      }

      .cls-6 {
        letter-spacing: -.07em;
      }

      .cls-7 {
        letter-spacing: -.09em;
      }

      .cls-3 {
        font-family: Gotham-Bold, Gotham;
        font-size: 110px;
        font-weight: 700;
      }
    </style>
  </defs>
  <g id="Calque_3" data-name="Calque 3">
    <path class="cls-2" d="m229.09,210.64h14.83c-.2,3.98-.15,7.92-.63,11.8-4.77,38.48-32.3,67.62-70.66,74.58-12.35,2.24-24.7,2.11-36.25-3.64-14.48-7.21-22.83-18.72-23.21-35.25-.13-5.76,1.53-11.2,4.11-16.36,6.44-12.89,12.84-25.81,19.25-38.72.43-.87.84-1.76,1.39-2.92h-48.53c-1.38,5.74-1.53,11.65-1.09,17.56,1.01,13.74,5.64,26.15,13.84,37.24.64.87,1.16,2.09,1.16,3.14-.02,7.97,1.39,15.59,5.06,22.73.15.29.2.62.46,1.44-8.39-6.04-15.2-12.9-20.63-21.03-15.08-22.58-18.66-46.99-11.37-73.1.64-2.3,1.66-3.04,4.09-3.03,20.39.11,40.77,0,61.16.14,2.69.02,3.94-.88,5.05-3.22,3.66-7.73,7.62-15.33,11.35-23.03.8-1.66,1.68-2.38,3.63-2.36,9.74.12,19.48.05,29.22.05.79,0,1.58,0,2.86,0-4.62,9.57-9.06,18.76-13.65,28.27h42.5c-.64-1.47-1.17-2.86-1.84-4.18-24.36-47.33-89.31-51.86-120.31-8.36-1.13,1.59-2.26,2.2-4.19,2.14-4.58-.14-9.17-.05-13.85-.05,9.27-21.92,39.43-49.23,81.1-46.61,41.94,2.63,73.63,35.2,78.7,72.05-1.19,0-2.35,0-3.5,0-21.02,0-42.03.03-63.05-.05-2.1,0-3.19.6-4.11,2.53-7.35,15.36-14.88,30.63-22.21,46-1.46,3.06-2.57,6.36-3.32,9.67-2.46,10.73,3.31,18.59,14.3,19.1,30.26,1.42,63.46-21.09,67.62-56.7.37-3.2.48-6.43.72-9.81Z"/>
  </g>
  <g id="Calque_4" data-name="Calque 4">
    <text class="cls-3" transform="translate(263.94 253.08)"><tspan class="cls-5" x="0" y="0">T</tspan><tspan class="cls-6" x="51.81" y="0">o</tspan><tspan class="cls-7" x="116.93" y="0">n</tspan><tspan class="cls-1" x="175.89" y="0">y</tspan><tspan class="cls-4" x="231.77" y="0">sik</tspan></text>
  </g>
  <g id="Calque_5" data-name="Calque 5">
    <path class="cls-2" d="m640.87,194.3c-5.04,0-9.14,4.1-9.14,9.14s4.1,9.14,9.14,9.14,9.14-4.1,9.14-9.14-4.1-9.14-9.14-9.14Zm0,17.27c-4.49,0-8.14-3.65-8.14-8.14s3.65-8.14,8.14-8.14,8.14,3.65,8.14,8.14-3.65,8.14-8.14,8.14Z"/>
    <path class="cls-2" d="m637.02,198.37h4.42c1.23,0,2.18.35,2.82.98.54.54.83,1.3.83,2.21v.03c0,1.56-.84,2.54-2.07,3l2.36,3.46h-2.49l-2.07-3.1h-1.67v3.1h-2.13v-9.68Zm4.29,4.7c1.04,0,1.63-.55,1.63-1.37v-.03c0-.91-.64-1.38-1.67-1.38h-2.12v2.78h2.16Z"/>
  </g>
</svg>